<svg width="20" height="20" viewBox="0 0 20 20" fill="none" xmlns="http://www.w3.org/2000/svg">
<g clip-path="url(#clip0_9_90)">
<path d="M19.7854 15.1674C19.0409 13.76 16.4556 12.2339 16.3417 12.1672C16.0095 11.9781 15.6629 11.878 15.3384 11.878C14.8561 11.878 14.4612 12.0989 14.2221 12.5008C13.8439 12.9532 13.3749 13.4819 13.261 13.5638C12.3801 14.1615 11.6905 14.0937 10.9274 13.3306L6.66876 9.07161C5.91054 8.31339 5.84084 7.61523 6.43444 6.7391C6.51749 6.62454 7.04621 6.15514 7.49854 5.77659C7.787 5.60492 7.98499 5.34983 8.07175 5.0369C8.18706 4.62053 8.10216 4.13075 7.83001 3.65357C7.76587 3.54382 6.23904 0.958078 4.83235 0.213946C4.56984 0.0749075 4.27397 0.00149536 3.97736 0.00149536C3.48868 0.00149536 3.02893 0.19207 2.68337 0.537256L1.74236 1.4779C0.254097 2.96579 -0.28463 4.65242 0.140271 6.49069C0.494726 8.0227 1.52769 9.65297 3.21098 11.3359L8.66313 16.788C10.7936 18.9185 12.8246 19.9989 14.7 19.9989C14.7 19.9989 14.7 19.9989 14.7004 19.9989C16.0796 19.9989 17.3654 19.4127 18.5211 18.257L19.4618 17.3164C20.0335 16.745 20.1633 15.8811 19.7854 15.1674Z" fill="white"/>
</g>
<defs>
<clipPath id="clip0_9_90">
<rect width="20" height="20" fill="white"/>
</clipPath>
</defs>
</svg>
